<?xml version="1.0" encoding="utf-8"?>
<!-- Generator: Adobe Illustrator 23.0.3, SVG Export Plug-In . SVG Version: 6.00 Build 0)  -->
<svg version="1.1" id="Capa_1" xmlns="http://www.w3.org/2000/svg" xmlns:xlink="http://www.w3.org/1999/xlink" x="0px" y="0px"
	 viewBox="0 0 512 512" style="enable-background:new 0 0 512 512;" xml:space="preserve">
<style type="text/css">
	.st0{fill:#828EA4;}
	.st1{fill:#5D6A7F;}
	.st2{fill:#F7F7F7;}
	.st3{fill:#D3312E;}
	.st4{fill:#ED3836;}
	.st5{fill:#26283A;}
	.st6{fill:#DCD2CD;}
	.st7{font-family:'Baloo-Regular';}
	.st8{font-size:58.3911px;}
</style>
<g>
	<g>
		<path class="st0" d="M338.9,322.3H104c-5.8,0-10.5-4.7-10.5-10.5V70.4c0-6.5,5.3-11.8,11.8-11.8H185l36.5,13.2L258,58.6h79.6
			c6.5,0,11.8,5.3,11.8,11.8v241.5C349.4,317.6,344.7,322.3,338.9,322.3z"/>
	</g>
	<g>
		<path class="st1" d="M337.6,58.6h-19.7c6.5,0,11.8,5.3,11.8,11.8v241.5c0,5.8-4.7,10.5-10.5,10.5h19.7c5.8,0,10.5-4.7,10.5-10.5
			V70.4C349.4,63.9,344.1,58.6,337.6,58.6z"/>
	</g>
	<g>
		<path class="st2" d="M237.3,185h-88.1c-3.1,0-5.6,2.5-5.6,5.6v52.9c0,3.1,2.5,5.6,5.6,5.6h88.1V185z"/>
	</g>
	<g>
		<path class="st3" d="M414.2,338.4c-6.2,6.2-16.2,6.2-22.4,0l-58.3-64.4l13-13l67.7,55C420.4,322.2,420.4,332.3,414.2,338.4z"/>
	</g>
	<g>
		<circle class="st4" cx="294.7" cy="217.6" r="75.1"/>
	</g>
	<g>
		<path class="st0" d="M331.3,181c20.2,20.2,20.2,52.9,0,73.1c-20.2,20.2-52.9,20.2-73.1,0c-1.6-1.6-3.1-3.3-4.4-5
			c-7-9,9.2-19.9,9-30.7c-0.2-11.8-16.1-23.7-8.2-33.4c1.1-1.4,2.3-2.7,3.6-4C278.3,160.8,311.1,160.8,331.3,181L331.3,181z"/>
	</g>
	<g>
		<path class="st1" d="M331.3,181c-12.6-12.6-30.1-17.4-46.4-14.2c9.8,1.9,19.1,6.6,26.7,14.2c20.2,20.2,20.2,52.9,0,73.1
			c-7.6,7.6-16.9,12.3-26.7,14.2c16.3,3.2,33.8-1.6,46.4-14.2C351.5,234,351.5,201.2,331.3,181L331.3,181z"/>
	</g>
	<g>
		<path class="st5" d="M250.9,108.8l-27.6-9.9c-1.2-0.4-2.4-0.4-3.6,0l-27.6,9.9c-3.5,1.2-7.1-1.3-7.1-5V58.6h73v45.2
			C258,107.5,254.3,110,250.9,108.8z"/>
	</g>
	<path class="st2" d="M293.8,249.1c3.1,0,5.6-2.5,5.6-5.6v-52.9c0-3.1-2.5-5.6-5.6-5.6h-39.2c-15.1,18.6-15.4,45.2-0.8,64.1H293.8z"
		/>
	<g>
		<g>
			<path class="st6" d="M190.7,185h9.9v64.1h-9.9V185z"/>
			<path class="st6" d="M162,185h9.9v64.1H162V185z"/>
		</g>
		<path class="st6" d="M264.5,185h9.9v64.1h-9.9V185z"/>
	</g>
</g>
<text transform="matrix(1 0 0 1 165.0003 383.2522)"><tspan x="0" y="0" class="st5 st7 st8">XYZ </tspan><tspan x="-75.3" y="70.1" class="st5 st7 st8">Inventory</tspan></text>
</svg>
